<svg width="129" height="129" viewBox="0 0 129 129" fill="none" xmlns="http://www.w3.org/2000/svg">
<path d="M82.8219 96.3822C98.3619 82.3283 96.8677 61.4109 84.9139 49.318C72.6611 37.2251 53.2361 37.552 41.5811 49.6448C30.2249 61.0841 28.4319 82.6551 45.1673 97.0358C42.7765 97.0358 40.9834 97.0358 38.8915 97.0358C33.5123 97.0358 28.4319 97.0359 23.0526 97.3627C21.5584 97.3627 20.6619 96.709 19.7653 95.4017C6.91491 74.1574 11.9953 47.0302 32.018 31.9958C56.8223 13.0394 93.2815 20.8834 108.224 48.3375C116.592 63.6987 115.994 79.3868 107.925 94.4212C107.626 95.0748 106.73 96.0554 106.132 96.0554C98.6608 96.3822 90.8908 96.3822 82.8219 96.3822Z" fill="rgba(0,0,0,0.7)"/>
<path d="M47.5577 79.06C58.615 79.06 69.3735 78.7332 80.132 78.7332C79.5343 84.2893 72.6608 90.4992 66.0862 90.826C57.4196 91.8065 49.6496 86.904 47.5577 79.06Z" fill="rgba(0,0,0,0.7)"/>
</svg>
